<svg id="visual" viewBox="0 0 900 100" width="900" height="100" xmlns="http://www.w3.org/2000/svg" xmlns:xlink="http://www.w3.org/1999/xlink" version="1.1"><path d="M0 48L7.5 49C15 50 30 52 45 46.8C60 41.7 75 29.3 90 22.8C105 16.3 120 15.7 135 23.2C150 30.7 165 46.3 180 48.5C195 50.7 210 39.3 225 31.7C240 24 255 20 270 23.5C285 27 300 38 315 45.2C330 52.3 345 55.7 360 49.3C375 43 390 27 405 26.2C420 25.3 435 39.7 450 47.2C465 54.7 480 55.3 495 55.3C510 55.3 525 54.7 540 52.8C555 51 570 48 585 41C600 34 615 23 630 21C645 19 660 26 675 31.7C690 37.3 705 41.7 720 39.5C735 37.3 750 28.7 765 25.7C780 22.7 795 25.3 810 30.3C825 35.3 840 42.7 855 40.7C870 38.7 885 27.3 892.5 21.7L900 16L900 101L892.5 101C885 101 870 101 855 101C840 101 825 101 810 101C795 101 780 101 765 101C750 101 735 101 720 101C705 101 690 101 675 101C660 101 645 101 630 101C615 101 600 101 585 101C570 101 555 101 540 101C525 101 510 101 495 101C480 101 465 101 450 101C435 101 420 101 405 101C390 101 375 101 360 101C345 101 330 101 315 101C300 101 285 101 270 101C255 101 240 101 225 101C210 101 195 101 180 101C165 101 150 101 135 101C120 101 105 101 90 101C75 101 60 101 45 101C30 101 15 101 7.5 101L0 101Z" fill="#908cde"></path><path d="M0 49L7.5 46.7C15 44.3 30 39.7 45 40.7C60 41.7 75 48.3 90 52.5C105 56.7 120 58.3 135 54.7C150 51 165 42 180 36.7C195 31.3 210 29.7 225 30.8C240 32 255 36 270 41C285 46 300 52 315 57C330 62 345 66 360 62C375 58 390 46 405 40.3C420 34.7 435 35.3 450 36.7C465 38 480 40 495 41.2C510 42.3 525 42.7 540 44.5C555 46.3 570 49.7 585 47.8C600 46 615 39 630 41.7C645 44.3 660 56.7 675 57.2C690 57.7 705 46.3 720 42.3C735 38.3 750 41.7 765 41.3C780 41 795 37 810 34.7C825 32.3 840 31.7 855 32.2C870 32.7 885 34.3 892.5 35.2L900 36L900 101L892.5 101C885 101 870 101 855 101C840 101 825 101 810 101C795 101 780 101 765 101C750 101 735 101 720 101C705 101 690 101 675 101C660 101 645 101 630 101C615 101 600 101 585 101C570 101 555 101 540 101C525 101 510 101 495 101C480 101 465 101 450 101C435 101 420 101 405 101C390 101 375 101 360 101C345 101 330 101 315 101C300 101 285 101 270 101C255 101 240 101 225 101C210 101 195 101 180 101C165 101 150 101 135 101C120 101 105 101 90 101C75 101 60 101 45 101C30 101 15 101 7.5 101L0 101Z" fill="#7669b1"></path><path d="M0 64L7.5 62.3C15 60.7 30 57.3 45 54.8C60 52.3 75 50.7 90 52.5C105 54.3 120 59.7 135 63.8C150 68 165 71 180 69.2C195 67.3 210 60.7 225 56C240 51.3 255 48.7 270 51C285 53.3 300 60.7 315 64.2C330 67.7 345 67.3 360 63C375 58.7 390 50.3 405 47.8C420 45.3 435 48.7 450 49.7C465 50.7 480 49.3 495 51.3C510 53.3 525 58.7 540 63.2C555 67.7 570 71.3 585 72C600 72.7 615 70.3 630 69.2C645 68 660 68 675 68.5C690 69 705 70 720 71.5C735 73 750 75 765 76.5C780 78 795 79 810 76.7C825 74.3 840 68.7 855 63.7C870 58.7 885 54.3 892.5 52.2L900 50L900 101L892.5 101C885 101 870 101 855 101C840 101 825 101 810 101C795 101 780 101 765 101C750 101 735 101 720 101C705 101 690 101 675 101C660 101 645 101 630 101C615 101 600 101 585 101C570 101 555 101 540 101C525 101 510 101 495 101C480 101 465 101 450 101C435 101 420 101 405 101C390 101 375 101 360 101C345 101 330 101 315 101C300 101 285 101 270 101C255 101 240 101 225 101C210 101 195 101 180 101C165 101 150 101 135 101C120 101 105 101 90 101C75 101 60 101 45 101C30 101 15 101 7.5 101L0 101Z" fill="#5c4986"></path><path d="M0 56L7.5 58C15 60 30 64 45 66.3C60 68.7 75 69.3 90 68.8C105 68.3 120 66.7 135 68.8C150 71 165 77 180 75.8C195 74.7 210 66.3 225 65.5C240 64.7 255 71.3 270 71.3C285 71.3 300 64.7 315 62.8C330 61 345 64 360 68.8C375 73.7 390 80.3 405 79.7C420 79 435 71 450 67.5C465 64 480 65 495 66.8C510 68.7 525 71.3 540 73.2C555 75 570 76 585 76C600 76 615 75 630 72.7C645 70.3 660 66.7 675 63.8C690 61 705 59 720 60.2C735 61.3 750 65.7 765 65.8C780 66 795 62 810 64.2C825 66.3 840 74.7 855 74.3C870 74 885 65 892.5 60.5L900 56L900 101L892.5 101C885 101 870 101 855 101C840 101 825 101 810 101C795 101 780 101 765 101C750 101 735 101 720 101C705 101 690 101 675 101C660 101 645 101 630 101C615 101 600 101 585 101C570 101 555 101 540 101C525 101 510 101 495 101C480 101 465 101 450 101C435 101 420 101 405 101C390 101 375 101 360 101C345 101 330 101 315 101C300 101 285 101 270 101C255 101 240 101 225 101C210 101 195 101 180 101C165 101 150 101 135 101C120 101 105 101 90 101C75 101 60 101 45 101C30 101 15 101 7.5 101L0 101Z" fill="#412b5d"></path><path d="M0 79L7.5 81C15 83 30 87 45 86.5C60 86 75 81 90 78.2C105 75.3 120 74.7 135 76.8C150 79 165 84 180 85C195 86 210 83 225 81C240 79 255 78 270 78.8C285 79.7 300 82.3 315 83.8C330 85.3 345 85.7 360 84C375 82.3 390 78.7 405 77.5C420 76.3 435 77.7 450 79.2C465 80.7 480 82.3 495 84.5C510 86.7 525 89.3 540 88.7C555 88 570 84 585 82.5C600 81 615 82 630 82C645 82 660 81 675 81.7C690 82.3 705 84.7 720 86.8C735 89 750 91 765 88.3C780 85.7 795 78.3 810 76.5C825 74.7 840 78.3 855 78.7C870 79 885 76 892.5 74.5L900 73L900 101L892.5 101C885 101 870 101 855 101C840 101 825 101 810 101C795 101 780 101 765 101C750 101 735 101 720 101C705 101 690 101 675 101C660 101 645 101 630 101C615 101 600 101 585 101C570 101 555 101 540 101C525 101 510 101 495 101C480 101 465 101 450 101C435 101 420 101 405 101C390 101 375 101 360 101C345 101 330 101 315 101C300 101 285 101 270 101C255 101 240 101 225 101C210 101 195 101 180 101C165 101 150 101 135 101C120 101 105 101 90 101C75 101 60 101 45 101C30 101 15 101 7.5 101L0 101Z" fill="#261038"></path></svg>