<svg id="visual" viewBox="0 0 900 100" width="900" height="100" xmlns="http://www.w3.org/2000/svg" xmlns:xlink="http://www.w3.org/1999/xlink" version="1.1"><path d="M0 50L7.5 49C15 48 30 46 45 51.2C60 56.3 75 68.7 90 75.2C105 81.7 120 82.3 135 74.8C150 67.3 165 51.7 180 49.5C195 47.3 210 58.7 225 66.3C240 74 255 78 270 74.5C285 71 300 60 315 52.8C330 45.7 345 42.3 360 48.7C375 55 390 71 405 71.8C420 72.7 435 58.3 450 50.8C465 43.3 480 42.7 495 42.7C510 42.7 525 43.3 540 45.2C555 47 570 50 585 57C600 64 615 75 630 77C645 79 660 72 675 66.3C690 60.7 705 56.3 720 58.5C735 60.7 750 69.3 765 72.3C780 75.3 795 72.7 810 67.7C825 62.7 840 55.3 855 57.3C870 59.3 885 70.7 892.5 76.3L900 82L900 0L892.5 0C885 0 870 0 855 0C840 0 825 0 810 0C795 0 780 0 765 0C750 0 735 0 720 0C705 0 690 0 675 0C660 0 645 0 630 0C615 0 600 0 585 0C570 0 555 0 540 0C525 0 510 0 495 0C480 0 465 0 450 0C435 0 420 0 405 0C390 0 375 0 360 0C345 0 330 0 315 0C300 0 285 0 270 0C255 0 240 0 225 0C210 0 195 0 180 0C165 0 150 0 135 0C120 0 105 0 90 0C75 0 60 0 45 0C30 0 15 0 7.5 0L0 0Z" fill="#1a191a"></path><path d="M0 49L7.5 51.3C15 53.7 30 58.3 45 57.3C60 56.3 75 49.7 90 45.5C105 41.3 120 39.7 135 43.3C150 47 165 56 180 61.3C195 66.7 210 68.3 225 67.2C240 66 255 62 270 57C285 52 300 46 315 41C330 36 345 32 360 36C375 40 390 52 405 57.7C420 63.3 435 62.7 450 61.3C465 60 480 58 495 56.8C510 55.7 525 55.3 540 53.5C555 51.7 570 48.3 585 50.2C600 52 615 59 630 56.3C645 53.7 660 41.3 675 40.8C690 40.3 705 51.7 720 55.7C735 59.7 750 56.3 765 56.7C780 57 795 61 810 63.3C825 65.7 840 66.3 855 65.8C870 65.3 885 63.7 892.5 62.8L900 62L900 0L892.5 0C885 0 870 0 855 0C840 0 825 0 810 0C795 0 780 0 765 0C750 0 735 0 720 0C705 0 690 0 675 0C660 0 645 0 630 0C615 0 600 0 585 0C570 0 555 0 540 0C525 0 510 0 495 0C480 0 465 0 450 0C435 0 420 0 405 0C390 0 375 0 360 0C345 0 330 0 315 0C300 0 285 0 270 0C255 0 240 0 225 0C210 0 195 0 180 0C165 0 150 0 135 0C120 0 105 0 90 0C75 0 60 0 45 0C30 0 15 0 7.5 0L0 0Z" fill="#1f1721"></path><path d="M0 34L7.5 35.7C15 37.3 30 40.7 45 43.2C60 45.7 75 47.3 90 45.5C105 43.7 120 38.3 135 34.2C150 30 165 27 180 28.8C195 30.7 210 37.3 225 42C240 46.7 255 49.3 270 47C285 44.7 300 37.3 315 33.8C330 30.3 345 30.7 360 35C375 39.3 390 47.7 405 50.2C420 52.7 435 49.3 450 48.3C465 47.3 480 48.7 495 46.7C510 44.7 525 39.3 540 34.8C555 30.3 570 26.7 585 26C600 25.3 615 27.7 630 28.8C645 30 660 30 675 29.5C690 29 705 28 720 26.5C735 25 750 23 765 21.5C780 20 795 19 810 21.3C825 23.7 840 29.3 855 34.3C870 39.3 885 43.7 892.5 45.8L900 48L900 0L892.5 0C885 0 870 0 855 0C840 0 825 0 810 0C795 0 780 0 765 0C750 0 735 0 720 0C705 0 690 0 675 0C660 0 645 0 630 0C615 0 600 0 585 0C570 0 555 0 540 0C525 0 510 0 495 0C480 0 465 0 450 0C435 0 420 0 405 0C390 0 375 0 360 0C345 0 330 0 315 0C300 0 285 0 270 0C255 0 240 0 225 0C210 0 195 0 180 0C165 0 150 0 135 0C120 0 105 0 90 0C75 0 60 0 45 0C30 0 15 0 7.5 0L0 0Z" fill="#231528"></path><path d="M0 42L7.5 40C15 38 30 34 45 31.7C60 29.3 75 28.7 90 29.2C105 29.7 120 31.3 135 29.2C150 27 165 21 180 22.2C195 23.3 210 31.7 225 32.5C240 33.3 255 26.7 270 26.7C285 26.7 300 33.3 315 35.2C330 37 345 34 360 29.2C375 24.3 390 17.7 405 18.3C420 19 435 27 450 30.5C465 34 480 33 495 31.2C510 29.3 525 26.7 540 24.8C555 23 570 22 585 22C600 22 615 23 630 25.3C645 27.7 660 31.3 675 34.2C690 37 705 39 720 37.8C735 36.7 750 32.3 765 32.2C780 32 795 36 810 33.8C825 31.7 840 23.3 855 23.7C870 24 885 33 892.5 37.5L900 42L900 0L892.5 0C885 0 870 0 855 0C840 0 825 0 810 0C795 0 780 0 765 0C750 0 735 0 720 0C705 0 690 0 675 0C660 0 645 0 630 0C615 0 600 0 585 0C570 0 555 0 540 0C525 0 510 0 495 0C480 0 465 0 450 0C435 0 420 0 405 0C390 0 375 0 360 0C345 0 330 0 315 0C300 0 285 0 270 0C255 0 240 0 225 0C210 0 195 0 180 0C165 0 150 0 135 0C120 0 105 0 90 0C75 0 60 0 45 0C30 0 15 0 7.5 0L0 0Z" fill="#251330"></path><path d="M0 19L7.5 17C15 15 30 11 45 11.5C60 12 75 17 90 19.8C105 22.7 120 23.3 135 21.2C150 19 165 14 180 13C195 12 210 15 225 17C240 19 255 20 270 19.2C285 18.3 300 15.7 315 14.2C330 12.7 345 12.3 360 14C375 15.7 390 19.3 405 20.5C420 21.7 435 20.3 450 18.8C465 17.3 480 15.7 495 13.5C510 11.3 525 8.7 540 9.3C555 10 570 14 585 15.5C600 17 615 16 630 16C645 16 660 17 675 16.3C690 15.7 705 13.3 720 11.2C735 9 750 7 765 9.7C780 12.3 795 19.7 810 21.5C825 23.3 840 19.7 855 19.3C870 19 885 22 892.5 23.5L900 25L900 0L892.5 0C885 0 870 0 855 0C840 0 825 0 810 0C795 0 780 0 765 0C750 0 735 0 720 0C705 0 690 0 675 0C660 0 645 0 630 0C615 0 600 0 585 0C570 0 555 0 540 0C525 0 510 0 495 0C480 0 465 0 450 0C435 0 420 0 405 0C390 0 375 0 360 0C345 0 330 0 315 0C300 0 285 0 270 0C255 0 240 0 225 0C210 0 195 0 180 0C165 0 150 0 135 0C120 0 105 0 90 0C75 0 60 0 45 0C30 0 15 0 7.5 0L0 0Z" fill="#261038"></path></svg>