<svg id="visual" viewBox="0 0 900 600" width="900" height="600" xmlns="http://www.w3.org/2000/svg" xmlns:xlink="http://www.w3.org/1999/xlink" version="1.1"><path d="M0 151L15 167.5C30 184 60 217 90 223.2C120 229.3 150 208.7 180 196.5C210 184.3 240 180.7 270 185C300 189.3 330 201.7 360 203.5C390 205.3 420 196.7 450 187.8C480 179 510 170 540 172.8C570 175.7 600 190.3 630 206.2C660 222 690 239 720 235.2C750 231.3 780 206.7 810 195.8C840 185 870 188 885 189.5L900 191L900 0L885 0C870 0 840 0 810 0C780 0 750 0 720 0C690 0 660 0 630 0C600 0 570 0 540 0C510 0 480 0 450 0C420 0 390 0 360 0C330 0 300 0 270 0C240 0 210 0 180 0C150 0 120 0 90 0C60 0 30 0 15 0L0 0Z" fill="#dfbfbf"></path><path d="M0 122L15 134.2C30 146.3 60 170.7 90 182.5C120 194.3 150 193.7 180 177.7C210 161.7 240 130.3 270 122.8C300 115.3 330 131.7 360 138.3C390 145 420 142 450 140.7C480 139.3 510 139.7 540 148.3C570 157 600 174 630 170C660 166 690 141 720 137.7C750 134.3 780 152.7 810 152.7C840 152.7 870 134.3 885 125.2L900 116L900 0L885 0C870 0 840 0 810 0C780 0 750 0 720 0C690 0 660 0 630 0C600 0 570 0 540 0C510 0 480 0 450 0C420 0 390 0 360 0C330 0 300 0 270 0C240 0 210 0 180 0C150 0 120 0 90 0C60 0 30 0 15 0L0 0Z" fill="#c79494"></path><path d="M0 122L15 116.8C30 111.7 60 101.3 90 93.8C120 86.3 150 81.7 180 88.2C210 94.7 240 112.3 270 120.7C300 129 330 128 360 117.7C390 107.3 420 87.7 450 91C480 94.3 510 120.7 540 121.3C570 122 600 97 630 83.8C660 70.7 690 69.3 720 75.3C750 81.3 780 94.7 810 95.8C840 97 870 86 885 80.5L900 75L900 0L885 0C870 0 840 0 810 0C780 0 750 0 720 0C690 0 660 0 630 0C600 0 570 0 540 0C510 0 480 0 450 0C420 0 390 0 360 0C330 0 300 0 270 0C240 0 210 0 180 0C150 0 120 0 90 0C60 0 30 0 15 0L0 0Z" fill="#ae6a6b"></path><path d="M0 69L15 62.8C30 56.7 60 44.3 90 37C120 29.7 150 27.3 180 30.8C210 34.3 240 43.7 270 54.3C300 65 330 77 360 83C390 89 420 89 450 86.7C480 84.3 510 79.7 540 77.3C570 75 600 75 630 70.3C660 65.7 690 56.3 720 55C750 53.7 780 60.3 810 63.5C840 66.7 870 66.3 885 66.2L900 66L900 0L885 0C870 0 840 0 810 0C780 0 750 0 720 0C690 0 660 0 630 0C600 0 570 0 540 0C510 0 480 0 450 0C420 0 390 0 360 0C330 0 300 0 270 0C240 0 210 0 180 0C150 0 120 0 90 0C60 0 30 0 15 0L0 0Z" fill="#924044"></path></svg>