<svg id="visual" viewBox="0 0 900 600" width="900" height="600" xmlns="http://www.w3.org/2000/svg" xmlns:xlink="http://www.w3.org/1999/xlink" version="1.1"><path d="M0 447L15 430.5C30 414 60 381 90 374.8C120 368.7 150 389.3 180 401.5C210 413.7 240 417.3 270 413C300 408.7 330 396.3 360 394.5C390 392.7 420 401.3 450 410.2C480 419 510 428 540 425.2C570 422.3 600 407.7 630 391.8C660 376 690 359 720 362.8C750 366.7 780 391.3 810 402.2C840 413 870 410 885 408.5L900 407L900 601L885 601C870 601 840 601 810 601C780 601 750 601 720 601C690 601 660 601 630 601C600 601 570 601 540 601C510 601 480 601 450 601C420 601 390 601 360 601C330 601 300 601 270 601C240 601 210 601 180 601C150 601 120 601 90 601C60 601 30 601 15 601L0 601Z" fill="#dfbfbf"></path><path d="M0 476L15 463.8C30 451.7 60 427.3 90 415.5C120 403.7 150 404.3 180 420.3C210 436.3 240 467.7 270 475.2C300 482.7 330 466.3 360 459.7C390 453 420 456 450 457.3C480 458.7 510 458.3 540 449.7C570 441 600 424 630 428C660 432 690 457 720 460.3C750 463.7 780 445.3 810 445.3C840 445.3 870 463.7 885 472.8L900 482L900 601L885 601C870 601 840 601 810 601C780 601 750 601 720 601C690 601 660 601 630 601C600 601 570 601 540 601C510 601 480 601 450 601C420 601 390 601 360 601C330 601 300 601 270 601C240 601 210 601 180 601C150 601 120 601 90 601C60 601 30 601 15 601L0 601Z" fill="#c79494"></path><path d="M0 476L15 481.2C30 486.3 60 496.7 90 504.2C120 511.7 150 516.3 180 509.8C210 503.3 240 485.7 270 477.3C300 469 330 470 360 480.3C390 490.7 420 510.3 450 507C480 503.7 510 477.3 540 476.7C570 476 600 501 630 514.2C660 527.3 690 528.7 720 522.7C750 516.7 780 503.3 810 502.2C840 501 870 512 885 517.5L900 523L900 601L885 601C870 601 840 601 810 601C780 601 750 601 720 601C690 601 660 601 630 601C600 601 570 601 540 601C510 601 480 601 450 601C420 601 390 601 360 601C330 601 300 601 270 601C240 601 210 601 180 601C150 601 120 601 90 601C60 601 30 601 15 601L0 601Z" fill="#ae6a6b"></path><path d="M0 529L15 535.2C30 541.3 60 553.7 90 561C120 568.3 150 570.7 180 567.2C210 563.7 240 554.3 270 543.7C300 533 330 521 360 515C390 509 420 509 450 511.3C480 513.7 510 518.3 540 520.7C570 523 600 523 630 527.7C660 532.3 690 541.7 720 543C750 544.3 780 537.7 810 534.5C840 531.3 870 531.7 885 531.8L900 532L900 601L885 601C870 601 840 601 810 601C780 601 750 601 720 601C690 601 660 601 630 601C600 601 570 601 540 601C510 601 480 601 450 601C420 601 390 601 360 601C330 601 300 601 270 601C240 601 210 601 180 601C150 601 120 601 90 601C60 601 30 601 15 601L0 601Z" fill="#924044"></path></svg>